<svg xmlns="http://www.w3.org/2000/svg" viewBox="0 0 762 762" fill="none" shape-rendering="auto"><metadata xmlns:rdf="http://www.w3.org/1999/02/22-rdf-syntax-ns#" xmlns:xsi="http://www.w3.org/2001/XMLSchema-instance" xmlns:dc="http://purl.org/dc/elements/1.1/" xmlns:dcterms="http://purl.org/dc/terms/"><rdf:RDF><rdf:Description><dc:title>Adventurer</dc:title><dc:creator>Lisa Wischofsky</dc:creator><dc:source xsi:type="dcterms:URI">https://www.figma.com/community/file/1184595184137881796</dc:source><dcterms:license xsi:type="dcterms:URI">https://creativecommons.org/licenses/by/4.0/</dcterms:license><dc:rights>Remix of „Adventurer” (https://www.figma.com/community/file/1184595184137881796) by „Lisa Wischofsky”, licensed under „CC BY 4.0” (https://creativecommons.org/licenses/by/4.0/)</dc:rights></rdf:Description></rdf:RDF></metadata><mask id="viewboxMask"><rect width="762" height="762" rx="0" ry="0" x="0" y="0" fill="#fff" /></mask><g mask="url(#viewboxMask)"><rect fill="url(#backgroundLinear)" width="762" height="762" x="0" y="0" /><defs><linearGradient id="backgroundLinear" gradientTransform="rotate(357 0.5 0.5)"><stop stop-color="#F43F5E"/><stop offset="1" stop-color="#F43F5E"/></linearGradient></defs><path d="M396 164.8a224.8 224.8 0 0 1 104.8 42.4c6.2 4.9 12.5 9.4 18 15a225.4 225.4 0 0 1 71.8 149 58.5 58.5 0 0 1 50.9 42.2 71 71 0 0 1-27.6 76.5c-11 7.7-24.5 12-38 11.7-5 0-10-1.6-15-1.8-1.9 2.2-3.3 4.9-4.8 7.3A223.3 223.3 0 0 1 389 609.8c-11 .7-21.9 2-33 .7a223.7 223.7 0 0 1-178.8-342.3A223.4 223.4 0 0 1 352 163.5c14.6-1.4 29.4-.3 44 1.3Z" fill="#000"/><path fill-rule="evenodd" clip-rule="evenodd" d="M498.8 213.2A216 216 0 0 0 363 169c-13-.2-26.2 1.6-39 4a218 218 0 0 0-113.6 365.5 218.5 218.5 0 0 0 260.4 40.2c35-18.8 64.2-47.3 84.4-81.5l-3-1.6c-2.8-1.4-5.7-3-8-5-2.2-2-.3-5.8 2.7-4.7 1.5.7 3 1.6 4.4 2.4a55 55 0 0 0 59.6-3.6 64.5 64.5 0 0 0 25-69.8 53.1 53.1 0 0 0-24-31 52.6 52.6 0 0 0-47-2.8c-1.6.8-3.4 1.5-5 1.3-2.5-.2-2.8-4.2-.6-5.2 8-4 16.5-5.6 25.4-6.4a217 217 0 0 0-72-146.4c-4.4-4-8.7-8.1-13.9-11.3Zm107.6 196.2c2-1.2 1.3-5.1-1.4-5-2 0-4.2.8-6.2 1.6l-1.4.4a95.1 95.1 0 0 0-25.5 12.4c-2.2 2-2.2 4.4.1 6.2a92 92 0 0 0 5.2 2.8 36 36 0 0 1 13 9.2c-.2 1.9-2 3.4-3.4 4.5l-.2.2c-3.9 3-8.8 5-13.6 7-2.5 1-4.9 2-7.1 3.1-1.7.8-2.6 2.2-1.6 3.9 1 2 3.2 1.1 5 .5l.6-.2 5.4-2.3c5.4-2.3 11-4.5 15.4-8 2.7-2.1 5.1-5.1 5.4-8.7-.5-3.4-2.7-5.7-5.3-7.8a83 83 0 0 0-11.6-7.2l-1.1-.6c5.4-3 10.8-5.6 16.6-7.7l5-1.7a52 52 0 0 0 6.7-2.6Z" fill="#ecad80"/><g transform="translate(-161 -83)"><path d="M380.2 447.2a55.2 55.2 0 0 1 61 45.5 55 55 0 1 1-61-45.5Z" fill="#000"/><path d="M378.2 453.3a49.4 49.4 0 0 1 57 58.2 49.3 49.3 0 1 1-57-58.2Z" fill="#fff"/><path d="M590 475c13-.7 27-1.4 39.8 1.4 2.2.6 3 1.3 2.3 3.7-2 1.7-6 3.3-6.8 6 0 6 9 6 9.7 10.9-.3 3-2.4 3.3-5 3.1-7.6-.6-15.3-1.2-23-1.4-16 0-32-.2-48 .9-7.6.7-15.2.6-22.8 1.2-11 1-22.1 1.3-33.1 3.3-2.7.5-5.5 1.1-8.2 1-2-1.2-3.1-5.5-.6-6.8 5.3-3 11.3-5 17.2-6.8 15-5 30.7-8.3 46.2-11.7 10.7-2.4 21.5-3.7 32.3-4.9ZM405.4 479.7a20.2 20.2 0 1 1 4.5 39.5 20.1 20.1 0 0 1-4.5-39.5Z" fill="#000"/></g><g transform="translate(-161 -83)"><path d="M523.2 384.4c6.2-.5 13.1-.6 18.5 3a10 10 0 0 1 4.5 10.7c-1.6 6.1-6.7 10.9-11.6 14.4a67.6 67.6 0 0 1-30.6 11.6c-5.6.5-12.5.4-17.5-2.6a10.2 10.2 0 0 1-5.2-10.3c1-5.8 5.5-10.5 10-14 9.1-7 20.5-11.3 32-12.8ZM392.2 401.2a47 47 0 0 1 26.3 5.3c3.9 2.2 7.4 5.9 8 10.5.3 4.2-2 7.8-5.3 10.2-4.5 3.6-9.8 5-15.4 6-10 1-20.6.3-29.5-4.6-3.9-2.2-7.9-5.8-8.4-10.5-.8-4.3 2-8.5 5.3-10.9a36 36 0 0 1 19-6Z" fill="#000"/></g><g transform="translate(-161 -83)"><path d="M580 568.7c2.4 1 2 3.4 1.4 5.4a92 92 0 0 1-28.4 34 96.5 96.5 0 0 1-60 17.5c-26.8-1-53-12-73.4-29.3-.4-2.4-.5-3.7 1.4-5.4 51.8-7.1 106.8-15 159-22.2Z" fill="#000"/><path d="M573.9 575.5c-8.2 15-21 27.5-36.4 35a89.2 89.2 0 0 1-40.5 9.2c-24.7.2-49-9-68.6-23.9 48-6.6 97.8-13.8 145.5-20.3Z" fill="#8F2E45"/></g><g transform="translate(-161 -83)"></g><g transform="translate(-161 -83)"><path fill-rule="evenodd" clip-rule="evenodd" d="M589 446c12.8.8 25.7 1.9 37.4 7.6 1.1.5 2.2 1.2 3.3 1.9 1.4.9 2.8 1.8 4.3 2.3 2.3.4 4.7.4 7 .5 2.7.1 5.4.2 8 .7 2.1.8 2.3 2.8 2.4 4.8v1c0 2.2 0 4.2-2.4 5.4-2.2.2-4.4.2-6.6.2h-3.2a92.2 92.2 0 0 1-11.5 52.3 82.3 82.3 0 0 1-43.9 37.2 78.7 78.7 0 0 1-77.4-14.3 88.7 88.7 0 0 1-28.7-44.5c-1-3-1.5-6-2-9-.6-3.2-1.2-6.4-2.3-9.5-2-5.5-10.5-8.8-14.5-3.7-3.3 3.7-3.2 8-3.2 12.6v3.5a77.3 77.3 0 0 1-41.3 65.4 65 65 0 0 1-46.2 5.3 62 62 0 0 1-30.7-19.2 70.8 70.8 0 0 1-16.8-45.2l-1.5-.2c-1.4-.2-2.7-.3-3.4-2v-.4c-.3-2.1-.9-5.5 1.4-6.5 1-.5 2-1 3-1.3 2.2-1 4.4-1.8 6.2-3.5a88.9 88.9 0 0 1 37.6-17.3 152 152 0 0 1 69-1c5.8 1.5 12 1.7 17.7-.4 7.1-2.3 14.9-3.5 22.3-2.5 5.8.6 11.9.4 17.4-1.9 12.1-4.6 24-9.1 36.6-12.3 20.3-5.1 41-7.2 62-6Zm-25 13c17.6-1 36-.8 53.3 3.7a19 19 0 0 1 14.2 15.5c1.3 7.9.3 15.5-1.3 23.3a80.6 80.6 0 0 1-24.7 39 73 73 0 0 1-81.6 9.6 80 80 0 0 1-33.2-32.9 60.6 60.6 0 0 1-6.4-35.5 98 98 0 0 1 20.2-10.3A214.9 214.9 0 0 1 564 459Zm-134.8 19.8c-11.4-2.2-23-2.7-34.7-2-16 1.2-31.3 3.7-46.4 9.4-5.2 2-10.6 4.5-15 8-4.1 2.8-5.5 9.1-5.7 13.8.3 8.9 3.6 17.9 8 25.5a56.4 56.4 0 0 0 66.7 25.6 68 68 0 0 0 46.6-62.1 47 47 0 0 0-1.4-10c-.3-1.6-1.8-2.5-3.1-3.3l-.6-.3a57.8 57.8 0 0 0-14.4-4.6Z" fill="#000"/></g><g transform="translate(-161 -83)"><path d="M754.9 186.1a94.7 94.7 0 0 1 29 52c5.3 43 5.3 86 11.8 128.9 4.5 31.8 10.7 66.1 25.5 94.9 10.3 20.5 21.8 40.5 31.8 61.1 8.6 17.7 14 37.3 14.8 57 .9 11.5.4 23.5-.6 34.9-2.2 18-7.9 36.3-17.5 51.8-7.5 12.2-19 21.4-30.6 29.5-1.3.8-2.5 2.8-4.1 2.6-2 0-3-2-2.5-3.8a95 95 0 0 0 6.5-69.1c-.3-1-.4-2.1-1.4-2.7-4.6 25.3-15 49.9-31.4 69.9-13.2 16-30 28.9-50.2 34.6a73.7 73.7 0 0 1-47-1.7c-1.6-1.7-4.5-3.3-3.3-6a68.1 68.1 0 0 0 16.8-32c-1.8.6-3.3 1.7-5 2.4a67.7 67.7 0 0 1-29.5 5.9c-9 0-19.3-2-26.3-8-1.8-1.6-4-3.2-3.3-5.9a69 69 0 0 0 12.8-32.3c.7-.9 1.9-1.4 2.8-2.1 26-18.2 47.3-42.2 63.5-69.5 1-2.3 3.4-2.8 5.6-2a55.2 55.2 0 0 0 41.4-4 64.8 64.8 0 0 0 34.3-65.5 55 55 0 0 0-19.8-36 50.2 50.2 0 0 0-55-6 123 123 0 0 1-4.6 32.1 123.4 123.4 0 0 1-35 58.3c-1.3 1-2.7 2.6-4.4 3.1-1.3.1-3.5-.9-3.5-2.5-.3-1.9 1.7-3.3 2.7-4.8a76.6 76.6 0 0 0 10-21.2c4.3-14 6-29.3 6.1-44-.3-26-5-52.4-16-76.1-.6-1.8-1.8-3.8-1-5.8 2-5 3-10.3 3.2-15.7-4.3 2.8-9 5.2-13.4 7.7-2.2 1.2-5.4 2.1-7.3 0-1.1-3.4-1-7.5-.7-11 .3-6.2.5-12.1 0-18.2-6.9 3.7-13.3 7.5-20.6 10.4-2.5 1-5.3 0-7.7-.9a83.6 83.6 0 0 1-29.2-23c-4.7-5.3-9-10.6-11.8-17.3-2.6-6-3.6-12.1-3.7-18.6-13.7 7.3-31 6.1-46.1 6.2-16 .3-32.2-.8-48 1.1-1.8.2-4.8-.8-4.9-2.9-.5-2.8 1.8-4.6 3.5-6.5-13.2 3.6-26.2 8.7-39 13-3.6.9-7 2.6-10.4.4-3.5-2.5-2.6-6.2-2.3-10-3 0-6 1.4-8.8 2.3a721.5 721.5 0 0 1-41 14.3c-9.5 2.9-19 5-29.1 4.8-4.8-.2-9.6.9-14 3a62.4 62.4 0 0 1-44.1-15 40.6 40.6 0 0 1-13-24.2 46 46 0 0 1 2-20 69.7 69.7 0 0 1 34.4-37.7c1.6-.8 3.9-2.4 5.7-1.4 1.7 1 2 3.4 1 5a49.6 49.6 0 0 0-5.8 57.9c4.4 7.3 10.9 14.2 19.5 16 2.6-15 10.8-29 20.5-40.6a205.6 205.6 0 0 1 49.4-41.6 297.1 297.1 0 0 1 114.9-41.3 176 176 0 0 1 66.5 2.6c17-22 42.5-37.2 70-41.6 30.7-5.4 63.9 3.6 86.9 24.8Z" fill="#000"/><g fill="#b9a05f"><path d="M681 165.9c28-1.7 56.2 9.2 75.2 29.9a88.5 88.5 0 0 1 21.6 42.3c.6 7 2 13.8 2.2 20.8 1.3 9.7 1.5 19.4 2.5 29.1 1.2 22.6 3.1 45.5 5.7 68 4 29 8 57.1 17.6 85 5.8 16.7 14.1 31.4 22.3 46.9 7.8 14.9 16.1 29.7 22.9 45.1 11.9 27.4 13.5 58.6 9.4 87.9a112.7 112.7 0 0 1-22.5 52c-4.5 5-9.7 9.9-15.2 13.7 4.3-12.3 6.3-25.6 5.7-38.6-.3-12.7-3.2-26-9.2-37.2-1.2-2.3-5.1-2-5.7.7-3.7 30-15.6 60.3-36.2 82.8a90 90 0 0 1-52.4 29.8 66.1 66.1 0 0 1-32.2-3c8.3-10.9 15.8-25.2 15.7-39.1.2-2.8-3.4-3.3-5.1-1.8a53.9 53.9 0 0 1-19.3 8.6 52.6 52.6 0 0 1-34.5-2.3c-1.2-.8-3.7-1.9-4.2-3.2a84.7 84.7 0 0 0 11.5-29.8c1.5-2 4.1-3 6-4.7a226.1 226.1 0 0 0 59-66.2c4.7.4 9.3 1.8 14.2 1.9a66 66 0 0 0 55-27.5 72.5 72.5 0 0 0 14.1-39 62.6 62.6 0 0 0-20.9-50 55 55 0 0 0 6.6-19c3.1-19.7.1-40.7-4.4-60a214.8 214.8 0 0 0-21-53.1c-3.6-15.1-8.4-29.8-15.8-43.5a138 138 0 0 0-55.4-56.6c-1.2-.7-2.5-.9-3.9-1.1a58.9 58.9 0 0 0-44.3-24.4c-5-.8-9.9 0-14.9 0-3.3-2.4-7-3.2-11-3.4-6.1-.5-11 1.8-16.6-1.5A104.6 104.6 0 0 1 681 166Z"/><path d="M594 208c1 .4 2.3.3 2.9 1.4-2.4.6-4.8 1.4-7 2.3a320.2 320.2 0 0 0-75.1 33.9c-8.2 5-16.1 10.6-23.5 16.7-1.5 1.3-1.6 3.3-.5 5 1.5.8 2.8.8 4.1-.4a254.2 254.2 0 0 1 46.6-29.4 268.6 268.6 0 0 1 61.6-23c6.4-1 13.5-2.5 20-1.3 2.2.4 4.2 1.7 6.4 2.4 3 1.2 6.2.2 9.5.2 4.3.1 8.8.3 13 1.2 12.5 2.2 24 9 32 19a91.5 91.5 0 0 1 17.3 44.1c1 7.6 1.8 15.2 1.6 22.9 0 2.2 0 5.7 3 5.5 2.2 0 3-1.6 3-3.5 0-21.1-3-41.8-12.4-61a127.4 127.4 0 0 1 36.4 33 156 156 0 0 1 27.8 66c4.7 25.5 4.3 52.4 1 78-.5 3.3-1.3 6.8-1.1 10.1 1.3 3 5.2 2.2 5.5-1 1.7-8.8 2.7-18 3.2-27.1 1.6-16.3.9-32.1-.8-48.3.3 2 1.4 3.6 2.2 5.4A202.3 202.3 0 0 1 786 428c.3 11.7-.6 25.3-6.3 35.8a57 57 0 0 0-56-5.3c-.6-1.6-.5-4.2-2.8-4.4-1.7-.3-3.4 1-3.3 2.9.3 6.6.5 13.4-.2 20a130.9 130.9 0 0 1-22.6 58l-1 .5c.2-2 .8-3.7 1.4-5.5 5-16.8 6.3-34.2 5.8-51.6-1.2-24.9-6.5-50.5-17.4-73.1 2.4-6 3-12 3.8-18.3.1-2 .5-4.1 0-6.1-1.2-2.4-4.1-1.8-5.7-.1-3.2 3-7 5.1-10.9 7-1.6.8-3.2 2.2-5 2.2 0-3.6.4-7.3.2-11 0-5.9.5-12.4-1-18-2.5-2.2-5-1-7.2.9-6.2 3.5-12.5 6.8-19 9.6-1.8.8-3.4.2-5-.4a78.2 78.2 0 0 1-24.8-19.2 64.7 64.7 0 0 1-13.4-19.4 39.7 39.7 0 0 1 2-33c1-1.6.5-4.1-1.7-4.4-2.7-.6-4 3-5 4.9-2 4.5-4 10.9-8.4 13.6-9.6 4-19.4 4.3-29.6 4.2h-48c-2.6.1-5.1.6-7.8.8 2-3 5.3-5 3.1-8.9-3.2-2-6.4-.7-9.8-.1-13.2 3.5-26 8.6-39 13-2 .6-4 1.4-6 1 .1-2.8 1.4-6.8-1-9-2-2.3-4.8-2-7.5-1.5-7 1.8-13.2 4.6-20 7-12.9 4.5-25.9 9.3-39.2 12.5-7.5 1.7-15.1 1.9-22.8 2-3.7 0-6.3 2.6-10 2.3a54 54 0 0 1-26-5c-9.7-4.3-17.9-11.9-21.6-22a37 37 0 0 1 1.2-27 62.3 62.3 0 0 1 22-26.4c-1.6 4-3.3 7.8-4.3 12-4.5 19 .4 40.8 15.1 54.1 5.2 3.6 10 7 16.6 7.1 2.3 0 3.8-1.3 4.2-3.5 3.4-20.6 18-39.2 32.8-53.2 26.2-24.4 59.4-42.1 93-53.9 13.1-4.4 26.4-8 40-10.7 24.7-4.5 51.4-6.2 76-.4Z"/></g></g><g transform="translate(-161 -83)"></g></g></svg>