<svg xmlns="http://www.w3.org/2000/svg" viewBox="0 0 762 762" fill="none" shape-rendering="auto"><metadata xmlns:rdf="http://www.w3.org/1999/02/22-rdf-syntax-ns#" xmlns:xsi="http://www.w3.org/2001/XMLSchema-instance" xmlns:dc="http://purl.org/dc/elements/1.1/" xmlns:dcterms="http://purl.org/dc/terms/"><rdf:RDF><rdf:Description><dc:title>Adventurer</dc:title><dc:creator>Lisa Wischofsky</dc:creator><dc:source xsi:type="dcterms:URI">https://www.figma.com/community/file/1184595184137881796</dc:source><dcterms:license xsi:type="dcterms:URI">https://creativecommons.org/licenses/by/4.0/</dcterms:license><dc:rights>Remix of „Adventurer” (https://www.figma.com/community/file/1184595184137881796) by „Lisa Wischofsky”, licensed under „CC BY 4.0” (https://creativecommons.org/licenses/by/4.0/)</dc:rights></rdf:Description></rdf:RDF></metadata><mask id="viewboxMask"><rect width="762" height="762" rx="0" ry="0" x="0" y="0" fill="#fff" /></mask><g mask="url(#viewboxMask)"><rect fill="url(#backgroundLinear)" width="762" height="762" x="0" y="0" /><defs><linearGradient id="backgroundLinear" gradientTransform="rotate(347 0.5 0.5)"><stop stop-color="#F43F5E"/><stop offset="1" stop-color="#F43F5E"/></linearGradient></defs><path d="M396 164.8a224.8 224.8 0 0 1 104.8 42.4c6.2 4.9 12.5 9.4 18 15a225.4 225.4 0 0 1 71.8 149 58.5 58.5 0 0 1 50.9 42.2 71 71 0 0 1-27.6 76.5c-11 7.7-24.5 12-38 11.7-5 0-10-1.6-15-1.8-1.9 2.2-3.3 4.9-4.8 7.3A223.3 223.3 0 0 1 389 609.8c-11 .7-21.9 2-33 .7a223.7 223.7 0 0 1-178.8-342.3A223.4 223.4 0 0 1 352 163.5c14.6-1.4 29.4-.3 44 1.3Z" fill="#000"/><path fill-rule="evenodd" clip-rule="evenodd" d="M498.8 213.2A216 216 0 0 0 363 169c-13-.2-26.2 1.6-39 4a218 218 0 0 0-113.6 365.5 218.5 218.5 0 0 0 260.4 40.2c35-18.8 64.2-47.3 84.4-81.5l-3-1.6c-2.8-1.4-5.7-3-8-5-2.2-2-.3-5.8 2.7-4.7 1.5.7 3 1.6 4.4 2.4a55 55 0 0 0 59.6-3.6 64.5 64.5 0 0 0 25-69.8 53.1 53.1 0 0 0-24-31 52.6 52.6 0 0 0-47-2.8c-1.6.8-3.4 1.5-5 1.3-2.5-.2-2.8-4.2-.6-5.2 8-4 16.5-5.6 25.4-6.4a217 217 0 0 0-72-146.4c-4.4-4-8.7-8.1-13.9-11.3Zm107.6 196.2c2-1.2 1.3-5.1-1.4-5-2 0-4.2.8-6.2 1.6l-1.4.4a95.1 95.1 0 0 0-25.5 12.4c-2.2 2-2.2 4.4.1 6.2a92 92 0 0 0 5.2 2.8 36 36 0 0 1 13 9.2c-.2 1.9-2 3.4-3.4 4.5l-.2.2c-3.9 3-8.8 5-13.6 7-2.5 1-4.9 2-7.1 3.1-1.7.8-2.6 2.2-1.6 3.9 1 2 3.2 1.1 5 .5l.6-.2 5.4-2.3c5.4-2.3 11-4.5 15.4-8 2.7-2.1 5.1-5.1 5.4-8.7-.5-3.4-2.7-5.7-5.3-7.8a83 83 0 0 0-11.6-7.2l-1.1-.6c5.4-3 10.8-5.6 16.6-7.7l5-1.7a52 52 0 0 0 6.7-2.6Z" fill="#f2d3b1"/><g transform="translate(-161 -83)"><path d="M617.2 468.8c1.2 1.4 2.4 2.4 2.9 4.2a65.5 65.5 0 0 1-79 79.6 65.2 65.2 0 0 1-49-71.6c.6-3.4 1.8-7.2 5.7-8 8.6-1.6 17.5-1.4 26.2-2.4a999 999 0 0 1 73-2c6.8-.4 13.5.4 20.2.2Z" fill="#000"/><path d="m607 474.3 7.5.3a59 59 0 0 1-37.2 70.6 59.3 59.3 0 0 1-79-66c1.8-.7 3.7-1.3 5.7-1.4 16.9-1.4 33.8-2.4 50.8-3-.5 5.2-.2 10.4 2 15.4a26.7 26.7 0 0 0 18.7 15c4.9.9 9.9.6 14.6-1.1 8.2-2.8 14.3-10 16.4-18.3 1-3.9.7-7.6.6-11.5Z" fill="#fff"/><path d="M432 480.7c2-.3 3.8.3 5.8.7a55 55 0 1 1-106 18.6c6.5-3.3 13.1-3.8 20.4-5.5 20.5-4.2 41.1-8.1 61.8-11.3 6-1 12-2 18-2.5Z" fill="#000"/><path d="M433.7 486a54.7 54.7 0 0 1 2.6 16 49.6 49.6 0 0 1-54.3 48.9 49.7 49.7 0 0 1-44.4-47.3c14.4-3.6 29.1-6.2 43.7-9a24.7 24.7 0 0 0 10.1 16 24 24 0 0 0 30-2.3 25 25 0 0 0 7.2-21.7l5.1-.5Z" fill="#fff"/></g><g transform="translate(-161 -83)"><path d="M545 378.5c24.7 1 48 9 69.5 21 2.2 1.3 4.9 2.5 6.8 4.3 1.3 2.4-.4 5.1-3.2 4.2a234.2 234.2 0 0 0-51-12c-20.4-2.4-40-3.7-60.3-.1-3.2.4-6.9 2.1-10 1.6-2.7-1.7-1.3-6.1 1.2-7.4a78.6 78.6 0 0 1 47-11.6ZM408 397c3.5.6 6.6 1.8 9.6 3.7a54 54 0 0 0-.3 3.6c-2.7.8-5.5 1.1-8.2 1.4a152 152 0 0 0-38.9 9.7 140.6 140.6 0 0 0-35.1 18.7c-2.9 2-4.2 4.8-8.1 4.4l-1.5-2.6c.9-1.6 1.6-3.2 2.7-4.7a90 90 0 0 1 38.6-29.3c12.7-5.2 27.6-8 41.2-5Z" fill="#000"/></g><g transform="translate(-161 -83)"><path d="M550 573.5c1.5 0 3.5-.3 4.6.9 1.8 1.5.8 4.5-1.6 4.7-5.3.8-10.7.6-16 1.3l-14.6 2c3 6.4 5 13.3 6 20.4 1.2 9.5.6 18.9-4.4 27.2a28 28 0 0 1-19 13.2 46.5 46.5 0 0 1-27-4.2 87.8 87.8 0 0 1-32.6-27.3 118 118 0 0 0-18.5 16.2c-1.5 1.6-3.5 4-5.7 1.9-1.9-1.7-.3-4 1-5.5a129 129 0 0 1 34.7-26.4 225 225 0 0 1 93.1-24.4Z" fill="#000"/><path d="M516.9 583.4c1.1 4 2.8 7.7 4 11.6 2 7 2.5 14.3 1.7 21.5a24.8 24.8 0 0 1-11 18c-7.5 4.5-16.7 4-24.7 1.5-15-4.8-27-15.2-36.5-27.5 9.3-5.9 19-10.7 29.3-14.6 1.7 2.4 3.3 5.1 5.4 7.1 1.4 1.5 4.5.1 4.1-2-.4-2.4-2.8-4.4-3.8-6.6-.1-.4.1-.7.7-.9 10-3.5 20.4-6 30.8-8.1Z" fill="#EA869E"/></g><g transform="translate(-161 -83)"></g><g transform="translate(-161 -83)"></g><g transform="translate(-161 -83)"><path d="M559 229c42.7 5.5 86.5 17 124.8 37.2 25.9 13.7 50.7 32.2 67 56.9 4.1 5.7 6 12 8.6 18.4 4.8 12 7.7 24 11 36.5 8 31 18 61.6 29 91.6 12.8 35 27.1 69.2 43.5 102.5 1.4 2.9 3 5.6 4.6 8.4.8 1.3 1 2.7 0 4a64 64 0 0 1-16 13 226 226 0 0 1-39.7 19.1A423.3 423.3 0 0 1 679 642.4c-3.9.3-7 1.3-10.6-1 .4-2.5.4-4.6 2.5-6.4 5.5-5 11-10.2 16.2-15.8a402.6 402.6 0 0 1-64.6 27.4c-2.9.8-6.5 2.3-9.5 1.6-1.9-.9-2.1-2.8-1.4-4.6 8.7-19.2 12.2-41.7 15-62.5a579 579 0 0 0 4.4-70c.1-18.2 0-36.5-1.8-54.6-37.5-3.9-74.6-15-108.8-30.9-24.2-11.4-48-25.9-68-43.9a157.3 157.3 0 0 1-23.4-26c-1.2 9.4-1 18.9-.9 28.4 0 3.6.3 7.1 1.3 10.6.3 1.7 1.2 3.3 0 4.8-1.1 1.7-3.7 1.1-5.4.6a57.4 57.4 0 0 1-30.4-25.6 73.7 73.7 0 0 1-10.1-40.4A181.7 181.7 0 0 0 351 366a269 269 0 0 0-32.6 48.4 36.7 36.7 0 0 0-3.4 8.5 218.3 218.3 0 0 0 92.4 228.6c1.2.8 2.4 1.6 3.5 2.6.7 1.7 1 3-.4 4.5-2.4 1.4-5.3 2-8 3-22 6.8-44 13.4-65.7 21.3-21.9 8-43.2 17.6-65.2 25.5-1.4-1-2.4-2-3.3-3.4 3.6-7.7 9.3-14 12.5-22.1 9.8-24.3 10-51.2 9.3-77 0-14.7-1.2-29.3-1.9-44-1.4-21.7-2.6-43.3-3.3-65-.6-27.3-2.1-55.7-.1-83 1.4-22 5.4-44.2 13-65a61 61 0 0 1 13.4-21.7c4.9-5 9.8-10.2 15.2-14.8 5.3-4.5 11-8.3 16.4-12.6 15.9-12.5 31-25.7 47-38a225.5 225.5 0 0 1 51-31 60.4 60.4 0 0 1 21.1-4.6 496 496 0 0 1 97 2.7Z" fill="#000"/><path d="M512 231.2c48 1.5 97.4 9.8 142.2 27.7a248 248 0 0 1 57.3 31.5 148 148 0 0 1 35.3 36.9c2.9 4.4 5 9.2 6.6 14.2 2.5 7.9 6 15.3 7.7 23.5 8.5 35 19.4 69.3 31.6 103.2 13.4 36.6 28.2 72.8 45.6 107.6 1 2.2 2.2 4.3 3.6 6.4a96.3 96.3 0 0 1-21.5 15.2 332 332 0 0 1-68.7 26.1c-24.3 6.7-49 11.4-74.2 13.2 8-7.1 15.4-14.7 22.2-23 1.4-1.7 2.9-3.1 4.8-4.2 6.2-3.7 12.3-7.6 18.1-11.8 1.4-1 2.2-2.4 3-3.8-1-1.2-1.7-2.4-3.6-2.4-3 1.3-5.5 3.5-8.2 5.3a387.7 387.7 0 0 1-94.8 44.6c5.5-14.5 8.8-30.1 11.3-45.4 4-24.8 5.8-49.8 6.5-75 .5-33.6-.5-66.7-6-100-.2-1.6-.8-3.6-2.8-3.4-3-.2-3.1 2.4-2.8 4.6 1.6 9.4 2.8 19 3.6 28.4-34.3-4-67.8-13.4-99.3-27.3-21.3-9.5-42-21.1-60.5-35.3-11.5-8.9-22.5-19.1-31.3-30.6-2.4-3.2-4.2-6.3-7.2-8.9-1.3-1.4-2.8-1-4.5-.7-2 2-2.3 4.5-2.6 7.2a157 157 0 0 0-.2 38.4c-7.3-2.8-13.8-8-18.8-13.8A66.9 66.9 0 0 1 398 304c1.1-1.9 1.4-4.3-.9-5.4-2.3-.3-2.9.7-4 2.4a68.5 68.5 0 0 0-9.3 26.7c-12.5 7.4-23 18.7-32.7 29.4a337.3 337.3 0 0 0-25.4 33.5 200.6 200.6 0 0 0-23.4 47.6 99.9 99.9 0 0 0-4 17.9c0 2.9 2.9 4.1 5 2.2.7-1.6 1-3.3 1.5-5a223.8 223.8 0 0 0 98 202.2c-25.3 8-51.7 15.7-76.8 25.4-16.3 6.2-32.2 13.3-48.5 19.8 4.8-7.1 9-14.5 11.4-22.7 8.2-25.3 7.6-51.8 7.1-78-.8-11.4-.8-22.7-1.7-34-.8-10.3-1-20.7-2-31-.6-13-1-26-1.7-39-.7-23.3-.6-46.7-.5-70 .5-22.2 3.5-44.4 9.6-65.8 1.7-5.8 4.4-11.1 7-16.6 4-8.4 10.3-13.8 16.7-20.2 5.8-6 12.4-11 19.1-15.9 27.3-20.9 53.8-46.3 83.8-63.2a99.5 99.5 0 0 1 22.7-10c7.3-2.1 14.4-2.3 22-2.7 13.6-.8 27.4-.5 41-.4Z" fill="#afafaf"/></g><g transform="translate(-161 -83)"></g></g></svg>