<svg xmlns="http://www.w3.org/2000/svg" viewBox="0 0 762 762" fill="none" shape-rendering="auto"><metadata xmlns:rdf="http://www.w3.org/1999/02/22-rdf-syntax-ns#" xmlns:xsi="http://www.w3.org/2001/XMLSchema-instance" xmlns:dc="http://purl.org/dc/elements/1.1/" xmlns:dcterms="http://purl.org/dc/terms/"><rdf:RDF><rdf:Description><dc:title>Adventurer</dc:title><dc:creator>Lisa Wischofsky</dc:creator><dc:source xsi:type="dcterms:URI">https://www.figma.com/community/file/1184595184137881796</dc:source><dcterms:license xsi:type="dcterms:URI">https://creativecommons.org/licenses/by/4.0/</dcterms:license><dc:rights>Remix of „Adventurer” (https://www.figma.com/community/file/1184595184137881796) by „Lisa Wischofsky”, licensed under „CC BY 4.0” (https://creativecommons.org/licenses/by/4.0/)</dc:rights></rdf:Description></rdf:RDF></metadata><mask id="viewboxMask"><rect width="762" height="762" rx="0" ry="0" x="0" y="0" fill="#fff" /></mask><g mask="url(#viewboxMask)"><rect fill="url(#backgroundLinear)" width="762" height="762" x="0" y="0" /><defs><linearGradient id="backgroundLinear" gradientTransform="rotate(26 0.5 0.5)"><stop stop-color="#3B82F6"/><stop offset="1" stop-color="#3B82F6"/></linearGradient></defs><path d="M396 164.8a224.8 224.8 0 0 1 104.8 42.4c6.2 4.9 12.5 9.4 18 15a225.4 225.4 0 0 1 71.8 149 58.5 58.5 0 0 1 50.9 42.2 71 71 0 0 1-27.6 76.5c-11 7.7-24.5 12-38 11.7-5 0-10-1.6-15-1.8-1.9 2.2-3.3 4.9-4.8 7.3A223.3 223.3 0 0 1 389 609.8c-11 .7-21.9 2-33 .7a223.7 223.7 0 0 1-178.8-342.3A223.4 223.4 0 0 1 352 163.5c14.6-1.4 29.4-.3 44 1.3Z" fill="#000"/><path fill-rule="evenodd" clip-rule="evenodd" d="M498.8 213.2A216 216 0 0 0 363 169c-13-.2-26.2 1.6-39 4a218 218 0 0 0-113.6 365.5 218.5 218.5 0 0 0 260.4 40.2c35-18.8 64.2-47.3 84.4-81.5l-3-1.6c-2.8-1.4-5.7-3-8-5-2.2-2-.3-5.8 2.7-4.7 1.5.7 3 1.6 4.4 2.4a55 55 0 0 0 59.6-3.6 64.5 64.5 0 0 0 25-69.8 53.1 53.1 0 0 0-24-31 52.6 52.6 0 0 0-47-2.8c-1.6.8-3.4 1.5-5 1.3-2.5-.2-2.8-4.2-.6-5.2 8-4 16.5-5.6 25.4-6.4a217 217 0 0 0-72-146.4c-4.4-4-8.7-8.1-13.9-11.3Zm107.6 196.2c2-1.2 1.3-5.1-1.4-5-2 0-4.2.8-6.2 1.6l-1.4.4a95.1 95.1 0 0 0-25.5 12.4c-2.2 2-2.2 4.4.1 6.2a92 92 0 0 0 5.2 2.8 36 36 0 0 1 13 9.2c-.2 1.9-2 3.4-3.4 4.5l-.2.2c-3.9 3-8.8 5-13.6 7-2.5 1-4.9 2-7.1 3.1-1.7.8-2.6 2.2-1.6 3.9 1 2 3.2 1.1 5 .5l.6-.2 5.4-2.3c5.4-2.3 11-4.5 15.4-8 2.7-2.1 5.1-5.1 5.4-8.7-.5-3.4-2.7-5.7-5.3-7.8a83 83 0 0 0-11.6-7.2l-1.1-.6c5.4-3 10.8-5.6 16.6-7.7l5-1.7a52 52 0 0 0 6.7-2.6Z" fill="#f2d3b1"/><g transform="translate(-161 -83)"><path fill-rule="evenodd" clip-rule="evenodd" d="M613 456a65 65 0 0 0-114.3 3.7c-3.3 6.3-5.2 13-6.5 20-4.4.4-8.8.9-13 2l.3 1.5c.3 1.4.6 2.6 2.3 3 2.3.2 4.8 0 7.1-.3l2.8-.2A65.1 65.1 0 0 0 612 524c6.5-10.2 9.8-22 10-34 .1-3.9-.3-7.5-.8-11.2l-.4-3 3-.2c2.2-.2 4.5-.4 6.8-1 1.1-.5 1.4-1.6 1.6-2.8l.4-1.4c-4.4-1.1-8.7-.8-13.2-.3l-1.4-3.5c-1.5-3.6-3-7.2-5.1-10.7Zm.6 14.7a59.9 59.9 0 0 0-106.7-13.8 58.4 58.4 0 0 0-8.8 22.5c6-.7 11.9-1 17.9-1.5l14.5-1.1 11-.7c4.8-.3 9.6-.5 14.4-1.1 16.4-1.1 32.8-2.4 49.2-3.7l8.5-.6Zm-200.2-17.1c12 6.5 21 17.4 25.6 30.1 2.6.2 5.3.4 8 .8l-.1.7-.6 3c-1 .8-2.5 1-3.9 1.3l-1.6.4a55 55 0 1 1-109 9l-7.2-.3.1-1.3c.1-1.2.2-2.7 1.2-3.2 1.5-.5 3.2-.7 4.8-1 .6 0 1.2 0 1.8-.2a55 55 0 0 1 80.9-39.4Zm19.7 30.8a49.3 49.3 0 0 0-94.7 8c7-.4 14-1 21-1.6a1133.2 1133.2 0 0 1 29.9-2.4 1075.2 1075.2 0 0 1 18-1.3c8.6-.6 17.3-1.2 25.8-2.7Z" fill="#000"/><path d="M615.1 476.4a59.8 59.8 0 0 1-67.2 71.8 59.7 59.7 0 0 1-50.7-62.9l8.4-.8c.5 6.9 2.8 13.1 8 17.8a24.6 24.6 0 0 0 41.2-21.1c4.5-.5 9-1.1 13.4-1.4 15.7-1 31.3-2.6 47-3.4ZM431 490.8l3.7-1a49.5 49.5 0 0 1-85.8 43.2 49.9 49.9 0 0 1-11.2-34.6c16.4-1.6 33-2.6 49.4-4.4.1 5.6 1.1 10.8 4.7 15.2a22.3 22.3 0 0 0 23.4 8c7-2.3 13-8 15-15.2 1.2-3.8.6-7.3.7-11.2Z" fill="#fff"/></g><g transform="translate(-161 -83)"><path d="M613.5 401.5c1.6 1 1.1 2.9 1.3 4.5l-.1 34c.3 2.8-2.5 4.2-4.7 5l-120 41.1c-2.5.2-2.9-1.7-3.5-3.6l-5-18c1 5.8 1 11.7 1.3 17.5 0 1.4.5 4-1 4.9-2 1.4-4 0-4.6-2l-10.6-38.4c-.4-1.8-.7-3.9 1.3-4.9 2.2-.5 3.5.5 4 2.5 1.3 4.5 2.6 9 3.7 13.7-.7-5.3-1-10.5-1.2-15.8 0-1.3-.1-3.7 1.7-3.8l4.4-.7 123.6-35.2c3.3-.9 6-2.1 9.4-.8ZM324 433.9c13.6 1.4 27.4 1.4 41 2.6 21 1 42.1 2.6 63.1 3.4 7.8.8 15.6 1 23.5 1.7 2.8 2.1 1 8 1.9 11.3.6-3 .2-7 2-9.5 2-1.8 5-.1 4.7 2.6-2.4 14-4.8 28.1-7 42.2-.8 2.9-4.5 2.5-5.3-.2-.3-5-.2-9.9-.3-14.8-1 4.3-1.5 8.7-2.5 13-.4 1.6-1.2 2.8-3 2.4l-119-21.3c-1.8-.2-2.8-1.5-3-3.3-1.5-8-2.6-16-4.2-24-.2-1.7-.7-3.1.6-4.6 2.1-2.2 4.7-1.6 7.5-1.5Z" fill="#000"/></g><g transform="translate(-161 -83)"><path d="M516.5 555.6c6 4.4 11.7 10 15.3 16.6 2.6 4.8 3.2 11.7-.4 16.1-4.2 5.4-11.5 7.6-18 8.8a151 151 0 0 1-47.4-1.6c-5.7-1.1-10.2 1.6-16 2.6-8.7 1.5-18.4 2.9-27 1-5.2-1-10.3-3.2-13.4-7.7-2.8-3.9-2.6-9.3-1.1-13.7 1.6-4 4.1-8 7-11.2 1.4-1.7 3.1-1 5-1.1.3 1.8 1 3.2-.4 4.8-2.6 3.3-5.2 6.4-6.4 10.5-1.1 3.3-.3 7 2.4 9.2 3 2.4 7.2 3.5 11 3.9a76 76 0 0 0 23-1.8c5.7-1 10-3.5 15.9-2.5 12 2 23.8 3.5 36 2.8 7-.2 14-1 20.3-4 3.2-1.9 6-4.2 5.7-8.3-.3-6-6.1-11.8-10.3-15.7-2.5-2.6-6.7-4-6-8.4 1.8-.9 3-1.8 4.8-.3Z" fill="#000"/></g><g transform="translate(-161 -83)"></g><g transform="translate(-161 -83)"><path fill-rule="evenodd" clip-rule="evenodd" d="M608 415.8a850 850 0 0 1 32-.3h1.7c3 0 6.2 0 9.3.5 2.6.6 5.6 2 6 4.9 1 5 .5 12-1 17-.5 1.7-1.8 2-3.4 2.3-3.5.4-7 .6-10.4.8l-3.8.2c.1 4.3.4 8.6.7 13 .7 11.7 1.4 23.7-.5 34.8-.9 7.5-3 14.9-5.7 21.9-3.1 8.5-9.1 16.1-15.4 22.6a75.3 75.3 0 0 1-36.2 21.8c-10.9 2.4-22.2 3-33.3 2.2a86.8 86.8 0 0 1-27-8.5c-10.5-6-18.5-15-24.8-25.2a134 134 0 0 1-15.5-41.6c-.5-2.2-.8-4.5-1.1-6.7-.5-2.9-.9-5.7-1.7-8.4-.4-1.8-2.6-3-4.1-4-6.7-3.3-16.4-.9-19 6.7-.5 2.8-.6 5.7-.6 8.6A132.1 132.1 0 0 1 443 525a70.2 70.2 0 0 1-22.5 29.6 72.9 72.9 0 0 1-64 7.8 62.9 62.9 0 0 1-18.8-14.2A107.3 107.3 0 0 1 317 505c-1.9-6.8-3-13.8-3-20.9l-4.9.9c-2.4.5-4.7 1-7.2 1.1-2.2.3-4.2-.6-5.3-2.6-2-3.8-2.5-8.4-1.8-12.6l.1-.5c.3-1.1.5-2.3 1.6-2.8 27.5-12.6 56-20.6 85.5-26.5 11.3-2.3 22.5-3.8 34-3 10 0 20 2.3 28.9 7a41.8 41.8 0 0 0 35.1 0c3-1.6 5-3.8 7-6 1.1-1.5 2.4-2.9 3.9-4.2 9.8-9.1 23-13.3 36.1-14.8 13.1-2.4 26.3-3 39.5-3.7h2.5c5.6-.2 11.1-.2 16.7-.2 7.4 0 14.9 0 22.3-.4Zm-23 6.3c8.3-.4 16.3-.5 24.1 2.9l2.2.9c3.1 1.3 6.8 2.8 7.9 6a98.4 98.4 0 0 1 8.3 40.1 96 96 0 0 1-5.2 37.2 60.6 60.6 0 0 1-18.2 23.9 76 76 0 0 1-17.8 10.2 66.4 66.4 0 0 1-29.3 6.2 95 95 0 0 1-17.2-3.2l-.9-.2c-6-1.5-10.7-4.6-15.7-7.9l-.8-.5a70 70 0 0 1-17.1-17c-2.8-4-4.6-8.7-6.3-13.3l-1.2-3.1c-4.7-12-6-24.6-5.9-37.3 0-7.8 1.2-17 5.5-23.6 5.1-6.4 12-12.2 19.8-15 9.3-2.8 19.2-4.3 28.8-5a320.7 320.7 0 0 1 39-1.3Zm-172.4 22H410a93.1 93.1 0 0 0-30 3.2l-6.8 1.5a164.8 164.8 0 0 0-30.5 8.8c-5.8 2.1-12 4.5-15 10.2-4.8 9.8-3.7 19.6-2.5 29.9l.4 3.3a92 92 0 0 0 13.1 33.3c5 8 11 15 19.4 19.6 12.8 7 28 6.1 41.4 1.6 11.4-4.5 21.8-9.9 28.6-20.4 8.8-14 14-30.7 15.5-47.2.9-9.3-.1-18.8-2.7-27.8-.5-1.4-1-3-2-4.1a35.6 35.6 0 0 0-19.1-11.4c-2.3-.4-4.8-.4-7.2-.5Z" fill="#000"/></g><g transform="translate(-161 -83)"><path d="M468.5 215.1c7 1.1 13.9 1 20.8 2.5 12 2.4 24 5.8 36 8.9 32.6 8.8 65.4 16.6 98.7 22.4 21.5 3.8 44 6.9 64.6 14.5 11.4 4 22.3 9.1 32.6 15.3 4.8 3.7 8.7 9 12.1 14a255.4 255.4 0 0 1 31.3 68.7 497.2 497.2 0 0 1 16 64.6c2.2 7.6.6 16.3-.6 24-3.4 19-10 37-18.7 54.3a307 307 0 0 1-38.5 56.5A187.8 187.8 0 0 1 691 591a129.6 129.6 0 0 1-31.3 17.7c-1.7.4-3 1.4-4.3-.3-1.3-1-.3-3.6 0-5 3.4-11.4 5.8-23 7.3-34.7 1.2-8.9 1.2-17.9 1.7-26.8-.2-10-.6-20-2-30a195.8 195.8 0 0 0-36.4-91.2c-2.1 30.3.4 61.3 8.5 90.6.9 3.4 2.4 6.4 3.7 9.6.4 3.3-2.2 4.6-5 3.5a276.5 276.5 0 0 1-139.1-109.7 162 162 0 0 0-16 26.4 190.4 190.4 0 0 0-16.5 96c-1 1.1-2 3.5-3.8 3.6-2 .3-3-1.4-4-2.7-5.6-7.5-11-15.1-15.8-23.2a332.2 332.2 0 0 1-28.5-65.4c-7.1-23.2-13-47.3-15.1-71.6a287.3 287.3 0 0 0-51.6 88.8 169 169 0 0 0-10.6 49.3c0 3.2-3.7 3.1-5.4 1a135.3 135.3 0 0 1-25-36c-12.9-27-17.6-57.3-15-87l-11.6 8.3a134.4 134.4 0 0 0-27.4 28.6c-1.4 1.8-2.2 3.7-4.8 3.3-2.8-1-1.1-4.1-1-6.2 3.1-12.7 8.4-25 14.4-36.5a287 287 0 0 1 59.7-75.3c29-26.3 63.2-48.6 100.5-61.2 4.6-9 9.8-18.2 16-26.2a37.8 37.8 0 0 1 16.6-12.6c6.3-2.1 12.7-2.1 19.2-1Z" fill="#000"/><g fill="#afafaf"><path d="M471.5 221c16.5 1.2 33.3 6.2 49.4 10.4 28 7.5 56 14.5 84.6 20 26.7 5.5 54 8 79.4 16.8 10.2 3.5 20.6 7.4 29.8 13 7 4.4 11.2 10.8 15.7 17.4 9.5 15 17.2 31.1 23.2 47.9a565.8 565.8 0 0 1 21.5 79.3c1.5 7.8.6 15.2-.8 23-2.2 12-5.6 23.8-10.3 35.2-9 23-22.5 44-37.7 63.3a270 270 0 0 1-25.6 28.4 155.5 155.5 0 0 1-38.7 26.5 228 228 0 0 0 5.6-95.3 195.3 195.3 0 0 0-41.9-95.7c-1.5-1.9-3.9-1.3-4.9.7-2.9 35.8-1 71.2 10.1 105.6a270.4 270.4 0 0 1-130.5-103.9c-18.7-29-31-61.9-33.9-96.4-.2-2.6-2.4-3.7-4.7-2.6-1.4 1.7-1 3.5-1 5.5 3.2 31.6 13.9 61.9 30 89.2-5 7.2-10 14.4-14.2 22.3a185 185 0 0 0-20.3 68.4c-1.3 10.4-.9 20.6-.5 31a221.1 221.1 0 0 1-24.4-41.5c-14-30-23.5-62-29-94.6a307 307 0 0 1-3.8-41.9 229 229 0 0 1 6.4-51 218 218 0 0 1 23.5-56.5c5-8.1 11-17.9 19.5-22.5 7-4.2 15.8-3 23.5-2Z"/><path d="M413 262.6a216.8 216.8 0 0 0-20.2 90.4c0 5.7.6 11.4.7 17.1a295.5 295.5 0 0 0-47 72.4c-7.5 16.5-13.8 34-17.4 51.7-1 4.7-1.4 9.5-2.3 14.2-25.3-29.1-36.7-69.2-34.6-107.4 0-4.8 1.4-8.7-.2-13-1.4-1.4-3.6-.9-5.1 0-4 2-7.7 5-11.4 7.5-9 6-16.2 13.1-23.7 20.8a174 174 0 0 1 13-27.7c19.6-34.5 48-64.4 79.6-88.2a275.5 275.5 0 0 1 68.6-37.8Z"/></g></g><g transform="translate(-161 -83)"></g></g></svg>